<svg width="22" height="22" viewBox="0 0 22 22" fill="none" xmlns="http://www.w3.org/2000/svg">
<circle cx="11" cy="11" r="10.8333" fill="white"/>
<path d="M11 0.166672C12.4226 0.166672 13.8314 0.446884 15.1457 0.99131C16.4601 1.53574 17.6543 2.33371 18.6603 3.33968C19.6663 4.34565 20.4643 5.53991 21.0087 6.85427C21.5531 8.16863 21.8333 9.57735 21.8333 11C21.8333 13.8732 20.692 16.6287 18.6603 18.6603C16.6287 20.692 13.8732 21.8333 11 21.8333C9.57734 21.8333 8.16861 21.5531 6.85425 21.0087C5.53989 20.4643 4.34563 19.6663 3.33967 18.6603C1.30802 16.6287 0.166656 13.8732 0.166656 11C0.166656 8.12683 1.30802 5.37133 3.33967 3.33968C5.37131 1.30804 8.12681 0.166672 11 0.166672ZM11 2.33334C6.57999 2.33334 2.92916 5.6375 2.39832 9.91667H6.80749C7.28416 8.0425 8.98499 6.66667 11 6.66667C13.015 6.66667 14.7158 8.0425 15.1925 9.91667H19.6017C19.0708 5.6375 15.42 2.33334 11 2.33334ZM11 19.6667C15.42 19.6667 19.0708 16.3625 19.6017 12.0833H15.1925C14.7158 13.9575 13.015 15.3333 11 15.3333C8.98499 15.3333 7.28416 13.9575 6.80749 12.0833H2.39832C2.92916 16.3625 6.57999 19.6667 11 19.6667ZM11 8.83334C10.4254 8.83334 9.87425 9.06161 9.46793 9.46794C9.0616 9.87427 8.83332 10.4254 8.83332 11C8.83332 11.5746 9.0616 12.1257 9.46793 12.5321C9.87425 12.9384 10.4254 13.1667 11 13.1667C11.5746 13.1667 12.1257 12.9384 12.5321 12.5321C12.9384 12.1257 13.1667 11.5746 13.1667 11C13.1667 10.4254 12.9384 9.87427 12.5321 9.46794C12.1257 9.06161 11.5746 8.83334 11 8.83334Z" fill="#8CCE7C"/>
</svg>
